# xmcd
# 
# Track frame offsets:
#   150
#   16751
#   31906
#   47588
#   62308
#   78640
#   93607
#   109830
#   130229
#   145900
#   161712
#   174850
#   187977
#   202417
# 
# Disc length: 2883 seconds
# 
# Revision: 0
# Processed by: cddbd v1.5.1PL2 Copyright (c) Steve Scherf et al.
# Submitted via: Synapstar 1.0 
# 
DISCID=b80b410e
DTITLE=Various Artist - sd star disc
DYEAR=1900
DGENRE=Country
TTITLE0=dixie chicks - without you
TTITLE1=lonestar - tell her
TTITLE2=reba mcentire - we're so good together
TTITLE3=tim mcgraw - my next thirty years
TTITLE4=jo dee messina - these are the days
TTITLE5=tracy byrd - take me with you when you go
TTITLE6=leann rimes - can't fight the moonlight
TTITLE7=keith urban - but for the grace of god
TTITLE8=sons of the desert - everybodys gotta grow up sometime
TTITLE9=shane mcanally - run away
TTITLE10=chris cagle - my love goes on and on
TTITLE11=the clark family - meanwhile back at the ranch
TTITLE12=mark willis - i want to know(everything there is...)
TTITLE13=mark chestnut - lost in the feeling
EXTD=MediaType: Karaoke CD+G Producer: StarDisc
EXTT0=
EXTT1=
EXTT2=
EXTT3=
EXTT4=
EXTT5=
EXTT6=
EXTT7=
EXTT8=
EXTT9=
EXTT10=
EXTT11=
EXTT12=
EXTT13=
PLAYORDER=
